<?xml version='1.0' encoding='utf-8'?>
<!DOCTYPE svg PUBLIC '-//W3C//DTD SVG 1.1//EN' 'http://www.w3.org/Graphics/SVG/1.1/DTD/svg11.dtd'>
<svg version="1.1" xmlns="http://www.w3.org/2000/svg" viewBox="0 0 512 512" xmlns:xlink="http://www.w3.org/1999/xlink" enable-background="new 0 0 512 512">
  <g>
    <g>
      <path d="M480.6,11h-92.3c-9.2,0-17.3,6.2-19.7,15.1l-32.9,123.1H31.4c-9.1-0.2-24.9,9-19.3,27.1l53.6,155    c46.1-11.7,86.7,10.5,102.6,28.5h62c19.4-19.7,56.3-39.4,99.2-29.4L404,51.8h76.6c11.3,0,20.4-9.1,20.4-20.4    C501,20.1,491.9,11,480.6,11z"/>
      <path d="m306.5,368.8c-36.6,0-66.3,29.6-66.3,66.1 0,36.4 29.8,66.1 66.3,66.1 36.6,0 66.3-29.6 66.3-66.1 0-36.4-29.7-66.1-66.3-66.1z"/>
      <path d="m92,368.8c-36.6,0-66.3,29.6-66.3,66.1 0,36.4 29.8,66.1 66.3,66.1 36.6,0 66.3-29.6 66.3-66.1 0-36.4-29.7-66.1-66.3-66.1z"/>
    </g>
  </g>
</svg>
